<?xml version="1.0" standalone="no"?>
<!DOCTYPE svg PUBLIC "-//W3C//DTD SVG 20010904//EN"
 "http://www.w3.org/TR/2001/REC-SVG-20010904/DTD/svg10.dtd">
<svg version="1.0" xmlns="http://www.w3.org/2000/svg"
 width="817.000000pt" height="1280.000000pt" viewBox="0 0 817.000000 1280.000000"
 preserveAspectRatio="xMidYMid meet">
<metadata>
Created by potrace 1.15, written by Peter Selinger 2001-2017
</metadata>
<g transform="translate(0.000000,1280.000000) scale(0.100000,-0.100000)"
fill="#000000" stroke="none">
<path d="M2112 12785 c-125 -27 -291 -128 -373 -227 -121 -145 -149 -222 -209
-573 -55 -317 -341 -1989 -431 -2519 l-60 -349 -58 -66 c-135 -153 -312 -405
-432 -613 -495 -864 -660 -1850 -473 -2838 68 -362 205 -775 359 -1081 119
-235 306 -526 467 -725 l57 -71 91 -539 c50 -297 111 -656 135 -799 24 -143
94 -557 155 -920 161 -956 152 -918 231 -1064 99 -184 246 -310 434 -373 l70
-23 1590 -3 c1776 -3 1673 -7 1830 67 196 93 337 253 394 446 11 39 48 234 81
435 33 201 74 442 90 535 16 94 84 494 150 890 67 396 145 860 174 1030 l52
311 98 124 c386 495 653 1074 762 1655 9 50 20 94 24 98 5 5 17 4 27 -2 17 -8
53 7 214 91 439 228 513 288 557 456 26 99 46 285 47 432 0 141 -17 183 -105
263 -107 96 -571 356 -655 366 l-49 6 -9 45 c-99 536 -366 1142 -725 1646
l-106 147 -263 1576 c-163 982 -270 1599 -284 1636 -95 268 -326 473 -594 530
-100 21 -3165 21 -3263 0z m3177 -852 c243 -1455 348 -2088 347 -2090 -1 -1
-45 25 -98 58 -404 245 -893 415 -1378 476 -187 23 -624 23 -804 -1 -511 -67
-966 -225 -1389 -483 -88 -53 -89 -53 -83 -26 3 16 91 492 196 1058 104 567
192 1040 195 1053 l5 22 1499 0 1499 0 11 -67z m-1198 -2357 c451 -63 837
-209 1219 -462 168 -111 269 -193 428 -349 203 -198 331 -355 475 -585 86
-137 216 -394 270 -535 215 -556 282 -1147 196 -1740 -98 -682 -420 -1331
-899 -1815 -492 -497 -1057 -780 -1740 -872 -125 -17 -528 -16 -645 1 -230 33
-387 68 -564 127 -589 197 -1136 610 -1506 1139 -319 456 -508 947 -582 1515
-21 167 -24 623 -4 770 24 183 52 336 82 455 321 1283 1340 2217 2569 2354 52
6 111 13 130 15 73 9 469 -4 571 -18z m-1971 -6779 c358 -190 762 -316 1196
-373 180 -24 617 -24 804 -1 516 65 1033 252 1459 526 22 14 23 14 18 -4 -6
-20 -397 -2126 -397 -2139 0 -3 -675 -6 -1500 -6 l-1500 0 -5 23 c-2 12 -81
486 -175 1052 -94 567 -173 1042 -176 1058 -6 27 -5 27 83 -26 48 -30 135 -79
193 -110z"/>
<path d="M3840 6994 c-58 -11 -98 -29 -152 -67 -60 -42 -99 -93 -144 -191 -25
-55 -26 -65 -21 -155 3 -53 11 -113 17 -133 7 -24 171 -246 453 -611 243 -315
604 -786 802 -1045 327 -428 364 -473 402 -488 97 -38 213 28 213 120 0 37
-1201 2410 -1248 2466 -16 19 -55 50 -87 69 -49 30 -66 35 -133 37 -42 1 -88
0 -102 -2z"/>
</g>
</svg>
